<svg id="tulia" xmlns="http://www.w3.org/2000/svg" viewBox="0 0 10.91 25.45"><title>trulia</title><path d="M10.9,5.77a6.9,6.9,0,0,0-.76-3A4.9,4.9,0,0,0,7.24.31a7.28,7.28,0,0,0-2-.31A7.37,7.37,0,0,0,3.63.18H3.5a0.09,0.09,0,0,0-.09,0A5,5,0,0,0,.78,2.55a6.91,6.91,0,0,0-.76,3A8.7,8.7,0,0,0,.56,9.12,12.26,12.26,0,0,0,1,10.33c0.53,1.52,1.11,3,1.65,4.52a15,15,0,0,1,.67,2.87,20,20,0,0,1,.36,2.89c0.09,0.81.13,1.63,0.22,2.48A11.92,11.92,0,0,1,4,24.87a0.63,0.63,0,0,0,.31.58H6.67A0.63,0.63,0,0,0,7,24.87c0-.58.09-1.33,0.09-1.91,0-.8.13-1.56,0.13-2.41a18.36,18.36,0,0,1,.36-2.68,35.77,35.77,0,0,1,1-3.75c0.58-1.66,1.21-3.22,1.79-4.87l0,0A8.69,8.69,0,0,0,10.9,5.77ZM5.47,9.06A3.55,3.55,0,1,1,9,5.51,3.55,3.55,0,0,1,5.47,9.06Z" transform="translate(0 0)"/></svg>