<svg id="tulia" xmlns="http://www.w3.org/2000/svg" viewBox="0 0 10.91 25.45"><defs><style>.cls-1{fill:#fff;}</style></defs><title>trulia</title><path d="M25.18,14.42a3.74,3.74,0,0,0-4,3.47q0,0.09,0,.19a3.75,3.75,0,0,0,7.5,0A3.67,3.67,0,0,0,25.18,14.42Z" transform="translate(-19.53 -12.61)"/><path d="M29.88,21.86c-0.58,1.65-1.21,3.21-1.79,4.87a35.76,35.76,0,0,0-1,3.75,18.36,18.36,0,0,0-.36,2.68c0,0.85-.13,1.61-0.13,2.41,0,0.58-.09,1.33-0.09,1.91a0.63,0.63,0,0,1-.31.58H23.88a0.63,0.63,0,0,1-.31-0.58,11.93,11.93,0,0,0-.09-1.78c-0.09-.85-0.13-1.67-0.22-2.48a20,20,0,0,0-.36-2.89,15,15,0,0,0-.67-2.87c-0.54-1.52-1.12-3-1.65-4.52a12.26,12.26,0,0,1-.49-1.21,8.7,8.7,0,0,1-.54-3.57,6.91,6.91,0,0,1,.76-3,5,5,0,0,1,2.63-2.37,0.09,0.09,0,0,1,.09,0h0.13a7.37,7.37,0,0,1,1.61-.18,7.28,7.28,0,0,1,2,.31,4.9,4.9,0,0,1,2.9,2.46,6.9,6.9,0,0,1,.76,3,8.69,8.69,0,0,1-.52,3.45Z" transform="translate(-19.53 -12.61)"/><circle class="cls-1" cx="5.47" cy="5.51" r="3.55"/></svg>