<svg id="yelp" xmlns="http://www.w3.org/2000/svg" viewBox="0 0 19.13 25"><title>yelp</title><path d="M15.71,29.69a3.57,3.57,0,0,1-.25-1,8.78,8.78,0,0,1,.45-4.05,1,1,0,0,1,.8-0.45c0.2,0,.4.1,4.45,1.75l1.15,0.5a1.07,1.07,0,0,1,.65,1.1,0.9,0.9,0,0,1-.7.9l-1.7.55a31.09,31.09,0,0,1-4.1,1.25,0.88,0.88,0,0,1-.72-0.5h0Zm9.23,3c0,4,.06,4.1,0,4.25a0.78,0.78,0,0,1-.67.55,8.8,8.8,0,0,1-4.79-1.8,1.16,1.16,0,0,1-.24-0.5,0.74,0.74,0,0,1,0-.35c0-.2.2-0.35,3-3.7l0.85-1a1.06,1.06,0,0,1,1.19-.3,1,1,0,0,1,.64,1v1.85h0Zm-0.53-8.25c-0.2,0-.8.25-1.6-1-5.15-8.1-5.3-8.35-5.3-8.35a0.92,0.92,0,0,1,.25-0.85c0.75-.8,5-2,6-1.7a0.93,0.93,0,0,1,.7.65c0,0.35.55,7.9,0.65,9.6,0.08,1.43-.52,1.59-0.72,1.64h0Zm2.65,0.4,1-1.45A31.08,31.08,0,0,1,30.66,20a0.48,0.48,0,0,1,.66,0,7.75,7.75,0,0,1,2.61,4.2,1,1,0,0,1-.11.9,38.28,38.28,0,0,1-4.62,1.2,7.42,7.42,0,0,0-1.27.3v0a1.23,1.23,0,0,1-1-.5,1,1,0,0,1,.16-1.21h0Zm4.3,10.75a0.84,0.84,0,0,1-.9-0.1,35.66,35.66,0,0,1-2.55-4l-0.65-1.1a1.14,1.14,0,0,1,.1-1.3,1,1,0,0,1,1.15-.35l1.65,0.55c3.75,1.25,3.9,1.25,4.05,1.4a0.88,0.88,0,0,1,.3.85,8.18,8.18,0,0,1-3.12,4h0Z" transform="translate(-15.39 -12.49)"/></svg>