<svg id="zillow" xmlns="http://www.w3.org/2000/svg" viewBox="0 0 31.69 25"><title>zillow</title><path d="M26.44,12.5c1,0.44,4.5,2.88,5.81,3.75a77.08,77.08,0,0,0-15.35,3c2.75-2,7.82-5.91,9.57-6.72h0Zm-14,11.06A88.86,88.86,0,0,1,26.5,19.44S15.31,29.69,12.19,32.82L14.75,26a45.26,45.26,0,0,0-5.62,1Zm19.69,9.31c-9.81.56-20.37,4.19-21.62,4.63l1.31-3.69a66.65,66.65,0,0,1,21.75-5.25c-0.17.82-1.23,3.5-1.42,4.32h0Zm3.44-9.81s-0.44,1-.94,2.38a58.41,58.41,0,0,0-13,2.56C23.13,26.63,33,16.81,33,16.81c3.88,2.56,7.81,5.81,7.81,5.81Z" transform="translate(-9.13 -12.5)"/></svg>